Coordinates
version=1
nRows=8
nColumns=40
inDegrees=yes

Units are S.I. units (second, meters, Newtons, ...)
Angles are in degrees.

endheader
time	pelvis_tilt	pelvis_list	pelvis_rotation	pelvis_tx	pelvis_ty	pelvis_tz	hip_flexion_r	hip_adduction_r	hip_rotation_r	knee_angle_r	knee_angle_r_beta	ankle_angle_r	subtalar_angle_r	mtp_angle_r	hip_flexion_l	hip_adduction_l	hip_rotation_l	knee_angle_l	knee_angle_l_beta	ankle_angle_l	subtalar_angle_l	mtp_angle_l	lumbar_extension	lumbar_bending	lumbar_rotation	arm_flex_r	arm_add_r	arm_rot_r	elbow_flex_r	pro_sup_r	wrist_flex_r	wrist_dev_r	arm_flex_l	arm_add_l	arm_rot_l	elbow_flex_l	pro_sup_l	wrist_flex_l	wrist_dev_l
      3.10000000	     -4.18660739	     -1.91723671	     -3.81942727	      0.92195469	      0.92138904	      0.49983746	     28.27083005	     -3.45913853	    -16.45697631	     13.39157456	     13.39157456	      0.87228163	      2.91227043	      9.65197125	      0.36748532	     -3.17806073	    -12.53899439	     12.48631745	     12.48631745	     16.58598063	     -6.93630936	     -7.69200454	    -12.55411531	     -0.07608848	      0.42839375	    -20.35499905	    -16.47341165	    -11.81818265	     27.60709042	     47.06558986	      0.00000000	      0.00000000	     14.74088873	    -13.09737569	     -8.37499096	     85.22468410	     47.36585521	      0.00000000	      0.00000000
      3.11171429	     -4.33263606	     -1.99848135	     -3.70386001	      0.92308587	      0.91977109	      0.50162358	     28.14951194	     -3.17843069	    -16.81343257	     13.34002184	     13.34002184	      0.98887005	      2.64122685	      9.53147162	     -0.35862592	     -3.30396394	    -12.40331236	     12.07154207	     12.07154207	     17.02216615	     -6.78643679	     -7.70828467	    -12.21036324	      0.21502953	      0.61982440	    -20.40745079	    -16.45555673	    -11.80819664	     27.57432130	     47.06162591	      0.00000000	      0.00000000	     15.10439363	    -12.94384621	     -8.37041259	     86.19637261	     47.39108860	      0.00000000	      0.00000000
      3.12342857	     -4.43885020	     -2.13390984	     -3.57464795	      0.92433949	      0.91819236	      0.50343716	     27.98891082	     -2.91181033	    -17.06535467	     13.69395695	     13.69395695	      1.14503971	      2.22360141	      9.23805073	     -1.11735544	     -3.49555103	    -12.22891650	     11.69633979	     11.69633979	     17.50953484	     -6.64665880	     -7.69888657	    -11.91481995	      0.60208016	      0.86529985	    -20.28618608	    -16.39857574	    -11.79481952	     27.61144758	     47.05738339	      0.00000000	      0.00000000	     15.29762663	    -12.75289451	     -8.30417042	     87.13909864	     47.40890495	      0.00000000	      0.00000000
      3.13514286	     -4.32712533	     -2.06869847	     -3.51834170	      0.92581490	      0.91691061	      0.50538624	     27.75923410	     -2.82415282	    -16.60283572	     14.51531249	     14.51531249	      0.48806529	      0.63308051	      6.52815551	     -2.30090374	     -3.40736817	    -12.21302028	     10.99501676	     10.99501676	     18.17986559	     -6.16216868	     -6.47319344	    -12.06620536	      0.64939916	      0.71368658	    -19.89572589	    -16.33435515	    -11.89306337	     27.84383006	     47.03392455	      0.00000000	      0.00000000	     13.94152671	    -13.02529010	     -8.21193807	     92.14630563	     47.52588285	      0.00000000	      0.00000000
      3.14685714	     -4.26378244	     -2.16576287	     -3.30970285	      0.92719747	      0.91542071	      0.50725847	     27.51894062	     -2.69723684	    -16.45807065	     15.41432232	     15.41432232	     -0.94161908	     -0.97322223	      1.23987791	     -2.89579860	     -3.68369735	    -12.26503617	     11.36571984	     11.36571984	     19.52394573	     -5.45980986	     -4.70284477	    -12.02946793	      0.97417458	      0.05103692	    -18.56820655	    -16.49539174	    -11.25296116	     27.08185152	     46.96398483	      0.00000000	      0.00000000	     13.04006645	    -12.99015539	     -9.44032557	     94.37135337	     47.75287282	      0.00000000	      0.00000000
      3.15857143	     -4.19718423	     -2.41900255	     -3.03650017	      0.92839400	      0.91420398	      0.50906041	     27.41972319	     -2.55400295	    -16.51605091	     16.83514329	     16.83514329	     -0.67604653	     -1.95150448	      0.69163739	     -3.49204157	     -4.10382310	    -12.00420791	     11.60529764	     11.60529764	     19.94756837	     -5.57276284	     -4.63244048	    -12.03405401	      1.53807469	      0.28720748	    -18.07357761	    -16.42532655	    -11.19424154	     27.19087024	     46.95514169	      0.00000000	      0.00000000	     12.99065137	    -12.70312860	     -9.22192666	     94.97104509	     47.75738670	      0.00000000	      0.00000000
      3.17028571	     -4.17423627	     -2.52969745	     -2.81084753	      0.92934946	      0.91296958	      0.51089697	     27.57051339	     -2.54658390	    -16.13764197	     18.57965204	     18.57965204	     -0.43650329	     -3.36509185	     -0.13782664	     -3.73715705	     -4.43174316	    -11.70244267	     12.38777930	     12.38777930	     20.40249321	     -5.83223926	     -4.36629147	    -12.01156774	      1.93271428	      0.47263647	    -17.39256628	    -16.28118290	    -11.13052084	     27.29862698	     46.94569772	      0.00000000	      0.00000000	     12.73965558	    -12.54097454	     -8.97851638	     96.06780142	     47.77272976	      0.00000000	      0.00000000
      3.18200000	     -4.25936052	     -2.72376071	     -2.50797134	      0.93007767	      0.91185226	      0.51277721	     27.74448977	     -2.42737612	    -15.74831233	     20.11259291	     20.11259291	     -0.23253056	     -4.97072149	     -1.08122663	     -3.49243750	     -4.96046638	    -11.40283003	     13.83386159	     13.83386159	     20.93233635	     -6.33652661	     -3.89160238	    -11.91875446	      2.40838251	      0.43951280	    -16.27776730	    -16.05689622	    -11.04735114	     27.40329492	     46.93586641	      0.00000000	      0.00000000	     12.11061074	    -12.53551802	     -8.78161564	     97.40386087	     47.80008465	      0.00000000	      0.00000000
